<svg width="11" height="16" viewBox="0 0 11 16" fill="none" xmlns="http://www.w3.org/2000/svg">
<path d="M3.64 10.42C3.61333 9.84667 3.63333 9.36667 3.7 8.98C3.76667 8.58 3.90667 8.22667 4.12 7.92C4.34667 7.61333 4.66 7.30667 5.06 7L6.1 6.2C6.42 5.93333 6.65333 5.69333 6.8 5.48C6.96 5.25333 7.04 5.03333 7.04 4.82C7.04 4.55333 6.96667 4.32 6.82 4.12C6.67333 3.92 6.46667 3.76 6.2 3.64C5.94667 3.52 5.64667 3.46 5.3 3.46C4.74 3.46 4.24 3.61333 3.8 3.92C3.36 4.22667 3.04667 4.63333 2.86 5.14L0.36 4.16C0.72 3.13333 1.36 2.31333 2.28 1.7C3.2 1.08667 4.24667 0.779999 5.42 0.779999C6.3 0.779999 7.08667 0.953333 7.78 1.3C8.48667 1.63333 9.04 2.08667 9.44 2.66C9.85333 3.23333 10.06 3.88667 10.06 4.62C10.06 5.1 9.98667 5.54 9.84 5.94C9.69333 6.32667 9.44667 6.70667 9.1 7.08C8.75333 7.44 8.27333 7.84 7.66 8.28L7.18 8.62C6.80667 8.88667 6.54667 9.14667 6.4 9.4C6.26667 9.65333 6.20667 9.99333 6.22 10.42H3.64ZM4.94 15.22C4.44667 15.22 4.02667 15.04 3.68 14.68C3.33333 14.32 3.16 13.8933 3.16 13.4C3.16 12.8933 3.33333 12.4667 3.68 12.12C4.02667 11.76 4.44667 11.58 4.94 11.58C5.43333 11.58 5.85333 11.76 6.2 12.12C6.54667 12.4667 6.72 12.8933 6.72 13.4C6.72 13.8933 6.54667 14.32 6.2 14.68C5.85333 15.04 5.43333 15.22 4.94 15.22Z" fill="#58E39F"/>
</svg>
